<?xml version="1.0" standalone="no"?>
<!DOCTYPE svg PUBLIC "-//W3C//DTD SVG 20010904//EN"
 "http://www.w3.org/TR/2001/REC-SVG-20010904/DTD/svg10.dtd">
<svg version="1.0" xmlns="http://www.w3.org/2000/svg"
 width="256.000000pt" height="256.000000pt" viewBox="0 0 256.000000 256.000000"
 preserveAspectRatio="xMidYMid meet">
<metadata>
Created by potrace 1.14, written by Peter Selinger 2001-2017
</metadata>
<g transform="translate(0.000000,256.000000) scale(0.100000,-0.100000)"
fill="#000000" stroke="none">
<path d="M1211 2544 c-222 -58 -418 -267 -505 -538 -9 -27 -16 -57 -16 -67 0
-10 -13 -21 -32 -28 -78 -27 -132 -98 -145 -186 -7 -53 11 -125 39 -155 13
-14 22 -40 24 -72 8 -105 69 -187 168 -229 l55 -22 -50 -23 c-27 -13 -74 -39
-103 -59 -29 -19 -68 -38 -87 -41 -51 -10 -87 -40 -100 -85 -7 -21 -16 -39
-21 -39 -22 0 -80 -79 -95 -130 -21 -69 -22 -83 -7 -143 25 -99 85 -168 175
-203 24 -9 48 -20 53 -25 4 -4 -1 -33 -13 -64 -12 -31 -24 -73 -28 -93 -12
-64 -6 -167 11 -200 17 -33 65 -72 89 -72 8 0 20 -7 28 -16 38 -46 132 -63
214 -39 94 27 155 99 155 183 0 13 9 31 20 40 18 16 50 113 50 155 0 17 5 18
48 11 86 -14 201 -9 291 13 51 12 167 72 201 105 l35 33 49 -35 c43 -30 58
-35 115 -36 36 -2 80 -8 98 -15 24 -10 40 -10 70 -1 32 10 43 20 65 64 14 29
29 64 33 78 4 14 26 51 47 83 73 107 106 224 83 292 -15 42 -40 72 -68 81 -11
3 -33 21 -49 39 -55 64 -191 89 -268 51 -35 -18 -90 -71 -90 -87 0 -5 -9 0
-20 11 -11 11 -28 20 -39 20 -10 0 -30 9 -45 21 l-26 21 66 76 c62 73 154 211
154 232 0 6 15 27 34 47 43 49 67 100 70 154 5 74 15 93 56 112 36 17 55 44
64 93 3 12 20 42 39 68 78 101 97 229 49 323 -32 61 -123 123 -182 123 -12 0
-31 9 -43 21 -31 30 -64 40 -109 35 -43 -5 -103 -38 -112 -61 -3 -8 -12 -15
-20 -15 -8 0 -28 -12 -45 -26 -22 -18 -32 -22 -35 -12 -32 108 -86 182 -162
217 -58 28 -159 34 -233 15z"/>
</g>
</svg>
